<svg xmlns="http://www.w3.org/2000/svg" width="248.217" height="402.308" viewBox="0 0 248.217 402.308">
  <g id="Group_464" data-name="Group 464" transform="translate(-55.458 -234.442)">
    <g id="Group_442" data-name="Group 442" transform="translate(149.611 234)">
      <g id="Group_437" data-name="Group 437" transform="translate(0)">
        <g id="Group_433" data-name="Group 433">
          <g id="Group_434" data-name="Group 434" transform="translate(0 0)">
            <path id="Path_6" data-name="Path 6" d="M.307,1.7S27.716.384,51.634,1.7a37.773,37.773,0,0,1,8.487,1.319c1.273.3,4.836,1.736,6.637,2.477a179.765,179.765,0,0,1,42.926,24.576c5.337,4.109,7.7,7.748,10.757,12.925.658,1.115,1.555,2.559,2.572,4.475l.833,2.153.879,1.592c.645.572.594,1.692.913,2.731a17.816,17.816,0,0,0,1.322,3.488,60.341,60.341,0,0,0,0,7.177c.652,7.122-.009,67.7-.295,96.688-.019,1.9,5.267.583,9.347,1.319s5.341,2.231,5.341,2.231A114.9,114.9,0,0,1,151,171.548c1.745,1.424,2.04,3.7,1.335,5.883-.5,1.546-13.4-3.539-23.591-5.883-2.539-.584-1.265,111.706-1.243,173.652,0,5.658-1.942,13.147-2.953,16.915-.488,1.822-.662,18.648-13.047,26.317a67.841,67.841,0,0,1-27.64,9.447c-3.156.411-5.891,1.033-9.124,1.575-3.045.51-6.555.939-9.617,1.35-1.655.221-9.619,1.2-9.619,1.2s-12.846-.209-25.026,0C-2.14,402.559-.82,402-.82,402" transform="translate(0.827)" fill="none" stroke="#707070" stroke-width="1"/>
          </g>
        </g>
      </g>
      <g id="Group_461" data-name="Group 461">
        <g id="Ellipse_2" data-name="Ellipse 2" transform="translate(73.606 14.987) rotate(42)" fill="#fff" stroke="#707070" stroke-width="1">
          <ellipse cx="26.052" cy="7.501" rx="26.052" ry="7.501" stroke="none"/>
          <ellipse cx="26.052" cy="7.501" rx="25.552" ry="7.001" fill="none"/>
        </g>
        <path id="Path_20" data-name="Path 20" d="M.381,1.7S27.716.384,51.634,1.7a37.773,37.773,0,0,1,8.487,1.319c1.273.3,4.836,1.736,6.637,2.477a179.765,179.765,0,0,1,42.926,24.576c5.337,4.109,7.7,7.748,10.757,12.925.658,1.115,1.555,2.559,2.572,4.475l.833,2.153.879,1.592c.645.572.594,1.692.913,2.731a17.816,17.816,0,0,0,1.322,3.488,60.341,60.341,0,0,0,0,7.177c.652,7.122-.009,67.7-.295,96.688-.019,1.9,5.267.583,9.347,1.319s5.341,2.231,5.341,2.231A114.9,114.9,0,0,1,151,171.548c1.745,1.424,2.04,3.7,1.335,5.883-.5,1.546-13.4-3.539-23.591-5.883-2.539-.584-1.265,111.706-1.243,173.652,0,5.658-1.942,13.147-2.953,16.915-.488,1.822-.662,18.648-13.047,26.317a67.841,67.841,0,0,1-27.64,9.447c-3.156.411-5.891,1.033-9.124,1.575-3.045.51-6.555.939-9.617,1.35-1.655.221-9.619,1.2-9.619,1.2s-12.846-.209-25.026,0C-2.14,402.559-.82,402-.82,402" transform="translate(0.827)" fill="none" stroke="#707070" stroke-width="1"/>
      </g>
    </g>
    <g id="Group_463" data-name="Group 463" transform="translate(56 234)">
      <g id="Group_462" data-name="Group 462" transform="translate(0)">
        <g id="Group_437-2" data-name="Group 437" transform="translate(0)">
          <g id="Group_433-2" data-name="Group 433">
            <g id="Group_434-2" data-name="Group 434">
              <path id="Path_6-2" data-name="Path 6" d="M139.9,1.35S114.5.384,92.432,1.7A32.374,32.374,0,0,0,84.6,3.021,64.7,64.7,0,0,0,78.475,5.5,162.874,162.874,0,0,0,38.86,30.075c-4.925,4.109-7.1,7.748-9.927,12.925-.607,1.115-1.435,2.559-2.374,4.475l-.769,2.153-.811,1.592c-.6.572-.548,1.692-.843,2.731a18.78,18.78,0,0,1-1.22,3.488,65.374,65.374,0,0,1,0,7.177c-.6,7.122.009,67.7.272,96.688.017,1.9-4.861.583-8.626,1.319s-4.929,2.231-4.929,2.231a106.164,106.164,0,0,0-8.9,6.694c-1.61,1.424-1.883,3.7-1.232,5.883.461,1.546,12.364-3.539,21.771-5.883,2.343-.584,1.167,111.706,1.147,173.652,0,5.658,1.792,13.147,2.726,16.915.45,1.822.611,18.648,12.04,26.317a59.5,59.5,0,0,0,25.508,9.447c2.912.411,5.437,1.033,8.42,1.575,2.811.51,6.049.939,8.875,1.35,1.527.221,8.877,1.2,8.877,1.2s11.855-.209,23.1,0c30.1.559,28.879,0,28.879,0" transform="translate(0.827)" fill="none" stroke="#707070" stroke-width="1"/>
            </g>
          </g>
        </g>
        <g id="Group_461-2" data-name="Group 461" transform="translate(0)">
          <g id="Ellipse_2-2" data-name="Ellipse 2" transform="matrix(-0.743, -0.669, 0.669, -0.743, 49.792, 67.28)" fill="#fff" stroke="#707070" stroke-width="1">
            <ellipse cx="7.935" cy="26.693" rx="7.935" ry="26.693" stroke="none"/>
            <ellipse cx="7.935" cy="26.693" rx="7.435" ry="26.193" fill="none"/>
          </g>
          <path id="Path_20-2" data-name="Path 20" d="M139.092,1.35S114.5.384,92.432,1.7A32.374,32.374,0,0,0,84.6,3.021,64.7,64.7,0,0,0,78.475,5.5,162.874,162.874,0,0,0,38.86,30.075c-4.925,4.109-7.1,7.748-9.927,12.925-.607,1.115-1.435,2.559-2.374,4.475l-.769,2.153-.811,1.592c-.6.572-.548,1.692-.843,2.731a18.78,18.78,0,0,1-1.22,3.488,65.374,65.374,0,0,1,0,7.177c-.6,7.122.009,67.7.272,96.688.017,1.9-4.861.583-8.626,1.319s-4.929,2.231-4.929,2.231a106.164,106.164,0,0,0-8.9,6.694c-1.61,1.424-1.883,3.7-1.232,5.883.461,1.546,12.364-3.539,21.771-5.883,2.343-.584,1.167,111.706,1.147,173.652,0,5.658,1.792,13.147,2.726,16.915.45,1.822.611,18.648,12.04,26.317a59.5,59.5,0,0,0,25.508,9.447c2.912.411,5.437,1.033,8.42,1.575,2.811.51,6.049.939,8.875,1.35,1.527.221,8.877,1.2,8.877,1.2s11.855-.209,23.1,0c30.1.559,28.879,0,28.879,0" transform="translate(0.827)" fill="none" stroke="#707070" stroke-width="1"/>
        </g>
      </g>
    </g>
  </g>
</svg>
