<svg xmlns="http://www.w3.org/2000/svg" width="40" height="40" viewBox="0 0 40 40"><g transform="translate(613 164)"><g transform="translate(-613 -164)" fill="#fff" stroke="#7c19ff" stroke-width="1"><circle cx="20" cy="20" r="20" stroke="none"/><circle cx="20" cy="20" r="19.5" fill="none"/></g><g transform="translate(95.993 -6.652)"><g transform="translate(-681.951 -139)"><line x1="3" y2="5" transform="translate(1.536 0.5)" fill="none" stroke="#7c19ff" stroke-width="0.3"/><line x2="3" y2="5" transform="translate(1.536 0.5)" fill="none" stroke="#7c19ff" stroke-width="0.3"/><line y1="1" x2="5" transform="translate(0.536 2.5)" fill="none" stroke="#7c19ff" stroke-width="0.3"/><g transform="translate(-0.049)" fill="none" stroke="#7c19ff" stroke-width="0.5"><circle cx="3" cy="3" r="3" stroke="none"/><circle cx="3" cy="3" r="2.75" fill="none"/></g></g><g transform="translate(-43.891)"><line x1="15" transform="translate(-652.602 -136)" fill="none" stroke="#7c19ff" stroke-width="0.5"/><g transform="translate(-657.952 -139)"><line x1="3" y2="5" transform="translate(1.367 0.5)" fill="none" stroke="#7c19ff" stroke-width="0.3"/><line x2="3" y2="5" transform="translate(1.367 0.5)" fill="none" stroke="#7c19ff" stroke-width="0.3"/><line y1="1" x2="5" transform="translate(0.367 2.5)" fill="none" stroke="#7c19ff" stroke-width="0.3"/><g transform="translate(-0.156)" fill="none" stroke="#7c19ff" stroke-width="0.5"><circle cx="3" cy="3" r="3" stroke="none"/><circle cx="3" cy="3" r="2.75" fill="none"/></g></g><path d="M28.309,8.041A3.078,3.078,0,0,0,31.2,6.03c.167-.586-.146-1.117-.551-1.991-.155-.353-.846-.978-2.341-1.267a11.015,11.015,0,0,1-2.134-.664S25.821,2.1,24.96.534a16.2,16.2,0,0,0-.746-1.7l-.282-.659-.442-.65c-.064-.457-2.485-2.542-5.507-2.655-.99-.037-3.49-.4-4.888,1.086-.877.927-2.891,6.154-2.891,6.154L1.83,3.737S-.259,4.19-.259,5.185,2.733,7.719,2.733,7.719" transform="translate(-660.595 -144.5)" fill="none" stroke="#7c19ff" stroke-width="0.5"/></g><g transform="translate(1 -1)"><g transform="translate(-4 54)"><path d="M-657.882-161.5c-2.365.456-2.577-.63-2.577-.63s-.292-1.309,0-1.59-.262-1.4,1.4-2.21,2.134-.766,2.7-.514.715-.872,2.607.3c.312.194.613.08.961.291,1,.606,1.043.94.971,1.725-.031.34.433.242.71.824.314.661.461,1.993-.342,2.123-.22.036-.067.4-.423.935a2.986,2.986,0,0,1-1.127.737c-.927.279-2.023-.57-2-.407a4.64,4.64,0,0,1-1.973-.145,1.918,1.918,0,0,1-.976-1.12C-658.1-161.581-657.882-161.5-657.882-161.5Z" transform="translate(-27.411 -34)" fill="#fff" stroke="#7c19ff" stroke-width="0.3"/><path d="M-687.71-196.355l1.132-2.011.553.472.364-.335s-.087-.223,0-.335c0,0,.333-.084.333,0,0,0,.083.251,0,.335s-.333,0-.333,0" transform="translate(0.119 0.533)" fill="none" stroke="#7c19ff" stroke-width="0.1"/><path d="M0,1.425,1,.185l.436.37L1.724.292s-.069-.175,0-.262c0,0,.263-.066.263,0,0,0,.066.2,0,.262s-.263,0-.263,0" transform="translate(-681.586 -193.106) rotate(-111)" fill="none" stroke="#7c19ff" stroke-width="0.1"/><path d="M0,1.425,1.143.111,1.4.429,1.724.292s-.069-.175,0-.262c0,0,.263-.066.263,0,0,0,.066.2,0,.262s-.263,0-.263,0" transform="matrix(-0.391, 0.921, -0.921, -0.391, -681.915, -199.934)" fill="none" stroke="#7c19ff" stroke-width="0.1"/><path d="M-.186,1.41.661.132.931.4,1.11.209s-.043-.125,0-.188c0,0,.163-.047.163,0,0,0,.041.141,0,.188s-.163,0-.163,0" transform="matrix(0.174, 0.985, -0.985, 0.174, -684.983, -200.034)" fill="none" stroke="#7c19ff" stroke-width="0.1"/><path d="M.151,1.4,1.025.2l.488.4L1.834.318s-.077-.191,0-.287c0,0,.294-.072.294,0,0,0,.073.215,0,.287s-.294,0-.294,0" transform="translate(-678.825 -197.854) rotate(163)" fill="none" stroke="#7c19ff" stroke-width="0.1"/><path d="M0,1.792,1.23.232,1.766.7l.353-.33s-.084-.22,0-.33c0,0,.323-.083.323,0,0,0,.081.248,0,.33s-.323,0-.323,0" transform="translate(-685.255 -196.127) rotate(-13)" fill="none" stroke="#7c19ff" stroke-width="0.1"/></g></g></g><text transform="translate(-608 -134)" fill="#7c19ff" font-size="6" font-family="SegoeUI, Segoe UI"><tspan x="0" y="0">SMARTCAR</tspan></text></g></svg>