<svg xmlns="http://www.w3.org/2000/svg" width="31.591" height="24" viewBox="0 0 31.591 24">
  <g id="Group_484" data-name="Group 484" transform="translate(-262.046 -543)">
    <g id="lightbulb_black_24dp" transform="translate(266 543)">
      <path id="Path_18" data-name="Path 18" d="M0,0H24V24H0Z" fill="none"/>
      <path id="Path_19" data-name="Path 19" d="M9,21a1,1,0,0,0,1,1h4a1,1,0,0,0,1-1V20H9ZM12,2A6.957,6.957,0,0,0,5,9a6.827,6.827,0,0,0,3,5.7V17a1,1,0,0,0,1,1h6a1,1,0,0,0,1-1V14.7A7.1,7.1,0,0,0,19,9,6.957,6.957,0,0,0,12,2Z" fill="#4d00b3"/>
    </g>
    <line id="Line_15" data-name="Line 15" y1="2" x2="6" transform="translate(286.5 545.5)" fill="none" stroke="#707070" stroke-width="1"/>
    <line id="Line_16" data-name="Line 16" x2="4" transform="translate(287 552)" fill="none" stroke="#707070" stroke-width="1"/>
    <line id="Line_17" data-name="Line 17" x2="7" y2="2" transform="translate(286.5 555.5)" fill="none" stroke="#707070" stroke-width="1"/>
    <line id="Line_18" data-name="Line 18" x1="5.303" y1="2" transform="translate(263.197 545.5)" fill="none" stroke="#707070" stroke-width="1"/>
    <line id="Line_19" data-name="Line 19" x1="4" transform="translate(264 552)" fill="none" stroke="#707070" stroke-width="1"/>
    <line id="Line_20" data-name="Line 20" x1="6.303" y2="2" transform="translate(262.197 555.5)" fill="none" stroke="#707070" stroke-width="1"/>
  </g>
</svg>
